<?xml version="1.0" encoding="utf-8"?>
<!-- Generator: Adobe Illustrator 19.0.0, SVG Export Plug-In . SVG Version: 6.00 Build 0)  -->
<svg version="1.1" xmlns="http://www.w3.org/2000/svg" xmlns:xlink="http://www.w3.org/1999/xlink" x="0px" y="0px"
	 viewBox="2258 -89.7 5127 1010" style="enable-background:new 2258 -89.7 5127 1010;" xml:space="preserve">
<style type="text/css">
	.st0{display:none;}
	.st1{display:inline;}
	.st2{fill:#FFFFFF;}
</style>
<g id="Layer_2_2_" class="st0">
	<rect x="1606" y="-551.7" class="st1" width="6768" height="1968"/>
</g>
<g id="Layer_1">
	<g id="Layer_2_1_" class="st0">
		<rect x="4434" y="-209.4" class="st1" width="5356" height="1282.6"/>
	</g>
	<g id="Layer_1_1_">
		<g id="Layer_3">
			<g id="XMLID_6_">
				<path id="XMLID_8_" class="st2" d="M3583.1,494c0,75-17.4,132.4-52.1,172.3c-34.7,39.9-85.1,59.8-151,59.8
					c-29.4,0-56.6-5.1-81.6-15.2V592.4c21.6,16.4,45.8,24.6,72.7,24.6c57.5,0,86.3-42.7,86.3-128.1V156.1h125.8L3583.1,494
					L3583.1,494L3583.1,494z"/>
				<path id="XMLID_10_" class="st2" d="M3884.2,726c-66.7,0-119.1-18.7-157.2-56.1c-38.2-37.4-57.2-88.1-57.2-152.1
					c0-66.1,19.8-117.9,59.4-155.3c39.6-37.4,93.1-56.1,160.5-56.1c66.4,0,118.5,18.7,156.3,56.1c37.8,37.4,56.6,86.8,56.6,148.2
					c0,66.4-19.5,118.9-58.4,157.4C4005.3,706.8,3951.9,726,3884.2,726z M3887.4,401c-29.2,0-51.8,10-68,30.1
					c-16.2,20.1-24.2,48.4-24.2,85.2c0,76.8,31,115.2,93,115.2c59.1,0,88.7-39.5,88.7-118.4C3976.8,438.4,3947,401,3887.4,401z"/>
				<path id="XMLID_13_" class="st2" d="M4583.4,716.3h-148l-127.7-198.4h-1.6v198.4h-123.4V124.1h123.4v377h1.6l119.1-184.8h146.5
					l-143.4,187.9L4583.4,716.3z"/>
				<path id="XMLID_45_" class="st2" d="M4978,551.4h-260.9c4.2,58.1,40.8,87.1,109.8,87.1c44,0,82.7-10.4,116-31.3v89.1
					c-37,19.8-85,29.7-144.1,29.7c-64.6,0-114.7-17.9-150.4-53.7c-35.7-35.8-53.5-85.7-53.5-149.8c0-66.4,19.3-119,57.8-157.8
					s85.9-58.2,142.2-58.2c58.3,0,103.4,17.3,135.4,52c31.9,34.6,47.9,81.6,47.9,141v51.9H4978z M4863.5,475.6
					c0-57.3-23.2-85.9-69.5-85.9c-19.8,0-36.9,8.2-51.4,24.6c-14.5,16.4-23.2,36.9-26.4,61.3H4863.5z"/>
				<path id="XMLID_49_" class="st2" d="M5216.3,515.5c0,66.4-14.1,118-42.2,154.9s-65.8,55.3-112.9,55.3c-21.9,0-39.8-3.1-53.9-9.4
					v-64.8c14.1,10.2,32.3,15.2,54.7,15.2c59.1,0,88.7-50.1,88.7-150.4V156.1h65.6L5216.3,515.5L5216.3,515.5z"/>
				<path id="XMLID_52_" class="st2" d="M5673.3,716.3h-64.1V653h-1.6c-26.6,48.4-67.7,72.7-123.4,72.7c-95.3,0-143-56.8-143-170.3
					V316.3h63.7v228.9c0,84.4,32.3,126.6,96.9,126.6c31.3,0,57-11.5,77.1-34.6c20.2-23,30.3-53.2,30.3-90.4V316.3h64.1V716.3z"/>
				<path id="XMLID_55_" class="st2" d="M6144,716.3h-64.1v-68h-1.6c-29.7,51.6-75.5,77.3-137.5,77.3c-50.3,0-90.4-17.9-120.5-53.7
					s-45.1-84.6-45.1-146.3c0-66.1,16.7-119.1,50-159c33.3-39.8,77.7-59.8,133.2-59.8c54.9,0,94.9,21.6,119.9,64.8h1.6V124.1h64.1
					V716.3L6144,716.3z M6079.9,535.4v-59c0-32.3-10.7-59.6-32-82c-21.4-22.4-48.4-33.6-81.3-33.6c-39.1,0-69.8,14.3-92.2,43
					c-22.4,28.6-33.6,68.2-33.6,118.8c0,46.1,10.7,82.5,32.2,109.2s50.3,40,86.5,40c35.7,0,64.6-12.9,86.9-38.7
					S6079.9,574.7,6079.9,535.4z"/>
				<path id="XMLID_59_" class="st2" d="M6615.1,684.2c0,146.9-70.3,220.3-210.9,220.3c-49.5,0-92.7-9.4-129.7-28.1v-64.1
					c45,25,88,37.5,128.9,37.5c98.4,0,147.7-52.3,147.7-157V649h-1.6c-30.5,51-76.3,76.6-137.5,76.6c-49.7,0-89.8-17.8-120.1-53.3
					s-45.5-83.3-45.5-143.2c0-68,16.3-122,49-162.1c32.7-40.1,77.4-60.2,134.2-60.2c53.9,0,93.9,21.6,119.9,64.8h1.6v-55.5h64.1
					v368.1L6615.1,684.2L6615.1,684.2z M6551,535.4v-59c0-31.8-10.7-59-32.2-81.6c-21.5-22.6-48.2-34-80.3-34
					c-39.6,0-70.6,14.4-93,43.2s-33.6,69.1-33.6,120.9c0,44.5,10.7,80.1,32.2,106.8s49.9,40,85.4,40c35.9,0,65.2-12.8,87.7-38.3
					C6539.8,607.9,6551,575.2,6551,535.4z"/>
				<path id="XMLID_65_" class="st2" d="M7066.3,532.3h-282.4c1,44.5,13,78.9,35.9,103.1c22.9,24.2,54.4,36.3,94.5,36.3
					c45,0,86.5-14.8,124.2-44.5v60.2c-35.2,25.5-81.6,38.3-139.5,38.3c-56.5,0-100.9-18.2-133.2-54.5
					c-32.3-36.3-48.4-87.4-48.4-153.3c0-62.2,17.6-113,52.9-152.1c35.3-39.2,79.1-58.8,131.4-58.8s92.8,16.9,121.5,50.8
					c28.6,33.9,43,80.9,43,141v33.5H7066.3z M7000.6,478c-0.3-37-9.2-65.8-26.8-86.3c-17.6-20.6-42-30.9-73.2-30.9
					c-30.2,0-55.9,10.8-77,32.4c-21.1,21.6-34.1,49.9-39.1,84.8H7000.6L7000.6,478z"/>
				<path id="XMLID_69_" class="st2" d="M7371.7,381.1c-11.2-8.6-27.3-12.9-48.4-12.9c-27.3,0-50.2,12.9-68.6,38.7
					c-18.4,25.8-27.5,60.9-27.5,105.5v203.9h-64.1v-400h64.1v82.4h1.6c9.1-28.1,23-50.1,41.8-65.8c18.8-15.8,39.7-23.6,62.9-23.6
					c16.7,0,29.4,1.8,38.3,5.5L7371.7,381.1L7371.7,381.1z"/>
			</g>
		</g>
		<g id="Layer_2">
		</g>
	</g>
	<g id="Layer_3_1_">
		<g id="Layer_4_1_">
			<g id="XMLID_21_">
				<g id="XMLID_23_">
					<path id="XMLID_41_" class="st2" d="M2616.2,701.6c0-39.1-24.7-72.3-59.5-84.9c4.8-11.1,7.5-23.3,7.5-36.2
						c0-49.9-40.5-90.3-90.3-90.3s-90.3,40.5-90.3,90.3c0,39.1,24.7,72.3,59.5,84.9c-3,6.9-5.2,14.2-6.4,21.8
						c-21.7,16.5-35.8,42.6-35.8,71.9c0,49.9,40.5,90.3,90.3,90.3c45.1,0,82.3-32.9,89.2-76C2602.2,757,2616.2,730.9,2616.2,701.6z"
						/>
					<path id="XMLID_40_" class="st2" d="M2818,720.8c0-39.1,24.7-72.3,59.4-84.9c-4.8-11.1-7.5-23.3-7.5-36.2
						c0-49.9,40.5-90.3,90.3-90.3s90.3,40.5,90.3,90.3c0,39.1-24.7,72.3-59.5,84.9c3,6.9,5.2,14.2,6.4,21.8
						c21.7,16.5,35.8,42.6,35.8,71.9c0,49.9-40.5,90.3-90.3,90.3c-45.1,0-82.3-32.9-89.2-76C2832,776.2,2818,750.1,2818,720.8z"/>
					<g id="XMLID_38_">
						<path id="XMLID_39_" class="st2" d="M3031.6,94.8c-52.3-157.6-198.2-171.6-278.9-171.6s-257.6-21.7-333.5,170.6
							c-45,113.7-10,207.5-7.2,212.6c5.1-2.1,11-3.6,17.6-4.1c17.7,43.3-0.7,81.7,13.7,55.3c14.3-26.4,25.6-121.1,52.9-156.6
							c65-84.9,110.7-1.8,221.6-1.8c110.9,0,157-51.8,225.2,1.8c35.3,27.6,3.3,124.1,17.7,150.5c14.4,26.4,31.1-5.8,48.9-49.1
							c6.9,0.5,16.8,2.9,22.1,5.2C3035.3,297.8,3075.7,227.1,3031.6,94.8z"/>
					</g>
					<g id="XMLID_31_">
						<path id="XMLID_37_" class="st2" d="M2499,271.1c0,49.9-40.5,90.3-90.3,90.3s-90.3-40.5-90.3-90.3s40.5-90.3,90.3-90.3
							C2458.6,180.8,2499,221.2,2499,271.1z"/>
						<path id="XMLID_36_" class="st2" d="M2552.8,167.3c0,49.9-40.5,90.3-90.3,90.3s-90.3-40.5-90.3-90.3s40.5-90.3,90.3-90.3
							C2512.4,76.9,2552.8,117.4,2552.8,167.3z"/>
						<path id="XMLID_35_" class="st2" d="M2475.9,378.7c0,49.9-40.5,90.3-90.3,90.3s-90.3-40.5-90.3-90.3
							c0-49.9,40.5-90.3,90.3-90.3C2435.5,288.3,2475.9,328.8,2475.9,378.7z"/>
						<circle id="XMLID_34_" class="st2" cx="2374.1" cy="528.6" r="90.3"/>
						<path id="XMLID_33_" class="st2" d="M2456.8,663.1c0,49.9-40.5,90.3-90.3,90.3s-90.3-40.5-90.3-90.3s40.5-90.3,90.3-90.3
							S2456.8,613.2,2456.8,663.1z"/>
						<path id="XMLID_32_" class="st2" d="M2449.1,786.1c0,49.9-40.5,90.3-90.3,90.3s-90.3-40.5-90.3-90.3s40.5-90.3,90.3-90.3
							S2449.1,736.2,2449.1,786.1z"/>
					</g>
					<g id="XMLID_24_">
						<path id="XMLID_30_" class="st2" d="M2935.3,290.2c0,49.9,40.5,90.3,90.3,90.3s90.3-40.5,90.3-90.3s-40.5-90.3-90.3-90.3
							S2935.3,240.4,2935.3,290.2z"/>
						<path id="XMLID_29_" class="st2" d="M2881.4,186.5c0,49.9,40.5,90.3,90.3,90.3s90.3-40.5,90.3-90.3s-40.5-90.3-90.3-90.3
							C2921.9,96.2,2881.4,136.6,2881.4,186.5z"/>
						<path id="XMLID_28_" class="st2" d="M2958.3,397.9c0,49.9,40.5,90.3,90.3,90.3s90.3-40.5,90.3-90.3s-40.5-90.3-90.3-90.3
							S2958.3,348,2958.3,397.9z"/>
						<path id="XMLID_27_" class="st2" d="M2969.8,547.8c0,49.9,40.5,90.3,90.3,90.3c49.9,0,90.3-40.5,90.3-90.3
							s-40.5-90.3-90.3-90.3C3010.3,457.5,2969.8,498,2969.8,547.8z"/>
						<circle id="XMLID_26_" class="st2" cx="3067.9" cy="682.3" r="90.3"/>
						<path id="XMLID_25_" class="st2" d="M2985.3,805.3c0,49.9,40.5,90.3,90.3,90.3s90.3-40.5,90.3-90.3
							c0-49.9-40.5-90.3-90.3-90.3S2985.3,755.4,2985.3,805.3z"/>
					</g>
				</g>
				<path id="XMLID_22_" class="st2" d="M2620.5,482.2c0,57.3,46.4,103.7,103.7,103.7S2828,539.6,2828,482.2
					c-103.7,0-46.4,0-103.7,0S2724.3,482.2,2620.5,482.2z"/>
			</g>
			<g id="XMLID_20_">
			</g>
			<g id="XMLID_19_">
			</g>
			<g id="XMLID_18_">
			</g>
			<g id="XMLID_17_">
			</g>
			<g id="XMLID_16_">
			</g>
			<g id="XMLID_15_">
			</g>
			<g id="XMLID_14_">
			</g>
			<g id="XMLID_12_">
			</g>
			<g id="XMLID_11_">
			</g>
			<g id="XMLID_9_">
			</g>
			<g id="XMLID_7_">
			</g>
			<g id="XMLID_4_">
			</g>
			<g id="XMLID_3_">
			</g>
			<g id="XMLID_2_">
			</g>
			<g id="XMLID_1_">
			</g>
		</g>
	</g>
</g>
</svg>
